<svg viewBox="0 0 106 106" xmlns="http://www.w3.org/2000/svg" xmlns:xlink="http://www.w3.org/1999/xlink" width="106.000000" height="106.000000" fill="none" customFrame="#000000">
	<defs>
		<filter id="pixso_custom_mask_type_outline">
			<feColorMatrix type="matrix" values="0 0 0 0 1 0 0 0 0 1 0 0 0 0 1 0 0 0 1 0 " />
		</filter>
	</defs>
	<mask id="mask_2" width="106.000000" height="106.000000" x="0.000000" y="0.000000" maskUnits="userSpaceOnUse">
		<g filter="url(#pixso_custom_mask_type_outline)">
			<circle id="Mask" cx="53" cy="53" r="53" fill="rgb(255,255,255)" />
			<circle id="Mask" cx="53" cy="53" r="53" stroke="rgb(150.96,150.96,150.96)" stroke-opacity="0" stroke-width="0" />
		</g>
	</mask>
	<g id="Group 19">
		<g id="Bitmap">
			<circle id="Mask" cx="53" cy="53" r="53" fill="rgb(54.137,82.9284,106.921)" />
			<circle id="Mask" cx="53" cy="53" r="53" stroke="rgb(150.96,150.96,150.96)" stroke-opacity="0" stroke-width="0" />
			<g mask="url(#mask_2)" />
		</g>
		<path id="Combined Shape" d="M72.948 45.3906L72.948 45.7291C72.948 46.2469 72.5282 46.6666 72.0105 46.6666L33.9375 46.6666C33.4198 46.6666 33 46.2469 33 45.7291L33 45.3906C33 42.4134 35.4134 40 38.3906 40L67.5573 40C70.5345 40 72.948 42.4134 72.948 45.3906ZM33 50.8854L33 61.2239C33 64.2011 35.4134 66.6145 38.3906 66.6145L67.5573 66.6145C70.5345 66.6145 72.948 64.2011 72.948 61.2239L72.948 50.8854C72.948 50.3677 72.5282 49.9479 72.0105 49.9479L33.9375 49.9479C33.4198 49.9479 33 50.3677 33 50.8854ZM42.974 57.4479L40.474 57.4479C39.5679 57.4479 38.8334 56.7134 38.8334 55.8073C38.8334 54.9012 39.5679 54.1666 40.474 54.1666L42.974 54.1666C43.8801 54.1666 44.6146 54.9012 44.6146 55.8073C44.6146 56.7134 43.8801 57.4479 42.974 57.4479Z" fill="rgb(255,255,255)" fill-rule="evenodd" />
	</g>
</svg>
