<svg viewBox="0 0 106 106" xmlns="http://www.w3.org/2000/svg" xmlns:xlink="http://www.w3.org/1999/xlink" width="106.000000" height="106.000000" fill="none" customFrame="#000000">
	<defs>
		<filter id="pixso_custom_mask_type_outline">
			<feColorMatrix type="matrix" values="0 0 0 0 1 0 0 0 0 1 0 0 0 0 1 0 0 0 1 0 " />
		</filter>
	</defs>
	<mask id="mask_1" width="106.000000" height="106.000000" x="0.000000" y="0.000000" maskUnits="userSpaceOnUse">
		<g filter="url(#pixso_custom_mask_type_outline)">
			<circle id="Mask" cx="53" cy="53" r="53" fill="rgb(255,255,255)" />
			<circle id="Mask" cx="53" cy="53" r="53" stroke="rgb(150.96,150.96,150.96)" stroke-opacity="0" stroke-width="0" />
		</g>
	</mask>
	<g id="Group 18">
		<g id="Bitmap">
			<circle id="Mask" cx="53" cy="53" r="53" fill="rgb(54.137,82.9284,106.921)" />
			<circle id="Mask" cx="53" cy="53" r="53" stroke="rgb(150.96,150.96,150.96)" stroke-opacity="0" stroke-width="0" />
			<g mask="url(#mask_1)" />
		</g>
		<path id="Combined Shape" d="M41.371 50.7615C40.7386 51.3707 39.8829 51.75 38.9375 51.75C36.999 51.75 35.4219 50.1729 35.4219 48.2344C35.4219 46.2959 36.999 44.7188 38.9375 44.7188C40.876 44.7188 42.4531 46.2959 42.4531 48.2344C42.4531 48.3802 42.4275 48.5191 42.4101 48.6604L45.879 50.3947C46.5114 49.7856 47.3671 49.4062 48.3125 49.4062C48.8536 49.4062 49.3602 49.5393 49.8185 49.7587L54.5244 45.0529C54.3049 44.5945 54.1719 44.088 54.1719 43.5469C54.1719 41.6084 55.749 40.0312 57.6875 40.0312C58.4071 40.0312 59.0757 40.2501 59.6336 40.6227L63.7224 37.5569C63.6186 37.2258 63.5469 36.8806 63.5469 36.5156C63.5469 34.5771 65.124 33 67.0625 33C69.001 33 70.5781 34.5771 70.5781 36.5156C70.5781 38.4541 69.001 40.0312 67.0625 40.0312C66.3429 40.0312 65.6743 39.8124 65.1164 39.4398L61.0276 42.5056C61.1314 42.8367 61.2031 43.1819 61.2031 43.5469C61.2031 45.4854 59.626 47.0625 57.6875 47.0625C57.1464 47.0625 56.6398 46.9294 56.1815 46.71L51.4756 51.4158C51.6951 51.8742 51.8281 52.3808 51.8281 52.9219C51.8281 54.8604 50.251 56.4375 48.3125 56.4375C46.374 56.4375 44.7969 54.8604 44.7969 52.9219C44.7969 52.776 44.8225 52.6371 44.8399 52.4958L41.371 50.7615ZM70.5781 70.6562L71.8281 70.6562C72.4757 70.6562 73 71.1805 73 71.8281C73 72.4757 72.4757 73 71.8281 73L34.1719 73C33.5243 73 33 72.4757 33 71.8281C33 71.1805 33.5243 70.6562 34.1719 70.6562L35.4219 70.6562L35.4219 57.6094C35.4219 56.9618 35.9462 56.4375 36.5938 56.4375L41.2812 56.4375C41.9288 56.4375 42.4531 56.9618 42.4531 57.6094L42.4531 70.6562L44.7969 70.6562L44.7969 62.2969C44.7969 61.6493 45.3212 61.125 45.9688 61.125L50.6562 61.125C51.3038 61.125 51.8281 61.6493 51.8281 62.2969L51.8281 70.6562L54.1719 70.6562L54.1719 52.9219C54.1719 52.2743 54.6962 51.75 55.3438 51.75L60.0312 51.75C60.6788 51.75 61.2031 52.2743 61.2031 52.9219L61.2031 70.6562L63.5469 70.6562L63.5469 45.8906C63.5469 45.243 64.0712 44.7188 64.7188 44.7188L69.4062 44.7188C70.0538 44.7188 70.5781 45.243 70.5781 45.8906L70.5781 70.6562Z" fill="rgb(255,255,255)" fill-rule="evenodd" />
	</g>
</svg>
